<mxfile host="app.diagrams.net" modified="2024-06-17T10:25:31.913Z" agent="Mozilla/5.0 (Windows NT 10.0; Win64; x64) AppleWebKit/537.36 (KHTML, like Gecko) Chrome/125.0.0.0 Safari/537.36" etag="_knqYYIJWU4Czm9yjEzJ" version="24.5.4" type="device">
  <diagram name="Page-1" id="M5FBrY5c7OHtkmIQAupH">
    <mxGraphModel dx="1500" dy="841" grid="1" gridSize="10" guides="1" tooltips="1" connect="1" arrows="1" fold="1" page="1" pageScale="1" pageWidth="850" pageHeight="1100" math="0" shadow="0">
      <root>
        <mxCell id="0" />
        <mxCell id="1" parent="0" />
        <mxCell id="E3HrB5_WT4M9X1sbjNpN-22" style="edgeStyle=orthogonalEdgeStyle;rounded=0;orthogonalLoop=1;jettySize=auto;html=1;exitX=0.5;exitY=0;exitDx=0;exitDy=0;exitPerimeter=0;entryX=0;entryY=0.5;entryDx=0;entryDy=0;" parent="1" source="E3HrB5_WT4M9X1sbjNpN-5" target="E3HrB5_WT4M9X1sbjNpN-9" edge="1">
          <mxGeometry relative="1" as="geometry" />
        </mxCell>
        <mxCell id="E3HrB5_WT4M9X1sbjNpN-23" style="edgeStyle=orthogonalEdgeStyle;rounded=0;orthogonalLoop=1;jettySize=auto;html=1;exitX=1;exitY=0.3333333333333333;exitDx=0;exitDy=0;exitPerimeter=0;entryX=0;entryY=0.5;entryDx=0;entryDy=0;" parent="1" source="E3HrB5_WT4M9X1sbjNpN-5" target="E3HrB5_WT4M9X1sbjNpN-8" edge="1">
          <mxGeometry relative="1" as="geometry" />
        </mxCell>
        <mxCell id="E3HrB5_WT4M9X1sbjNpN-5" value="Korisnik" style="shape=umlActor;verticalLabelPosition=bottom;verticalAlign=top;html=1;outlineConnect=0;" parent="1" vertex="1">
          <mxGeometry x="40" y="380" width="30" height="60" as="geometry" />
        </mxCell>
        <mxCell id="E3HrB5_WT4M9X1sbjNpN-29" style="edgeStyle=orthogonalEdgeStyle;rounded=0;orthogonalLoop=1;jettySize=auto;html=1;exitX=0;exitY=0.3333333333333333;exitDx=0;exitDy=0;exitPerimeter=0;entryX=1;entryY=0.5;entryDx=0;entryDy=0;" parent="1" source="E3HrB5_WT4M9X1sbjNpN-6" target="E3HrB5_WT4M9X1sbjNpN-11" edge="1">
          <mxGeometry relative="1" as="geometry" />
        </mxCell>
        <mxCell id="E3HrB5_WT4M9X1sbjNpN-31" style="edgeStyle=orthogonalEdgeStyle;rounded=0;orthogonalLoop=1;jettySize=auto;html=1;exitX=0.5;exitY=0;exitDx=0;exitDy=0;exitPerimeter=0;entryX=1;entryY=0.5;entryDx=0;entryDy=0;" parent="1" source="E3HrB5_WT4M9X1sbjNpN-6" target="E3HrB5_WT4M9X1sbjNpN-12" edge="1">
          <mxGeometry relative="1" as="geometry" />
        </mxCell>
        <mxCell id="E3HrB5_WT4M9X1sbjNpN-37" style="edgeStyle=orthogonalEdgeStyle;rounded=0;orthogonalLoop=1;jettySize=auto;html=1;exitX=0;exitY=1;exitDx=0;exitDy=0;exitPerimeter=0;entryX=1;entryY=0.5;entryDx=0;entryDy=0;" parent="1" source="E3HrB5_WT4M9X1sbjNpN-6" target="E3HrB5_WT4M9X1sbjNpN-19" edge="1">
          <mxGeometry relative="1" as="geometry" />
        </mxCell>
        <mxCell id="E3HrB5_WT4M9X1sbjNpN-6" value="Admin" style="shape=umlActor;verticalLabelPosition=bottom;verticalAlign=top;html=1;outlineConnect=0;" parent="1" vertex="1">
          <mxGeometry x="1030" y="370" width="30" height="60" as="geometry" />
        </mxCell>
        <mxCell id="E3HrB5_WT4M9X1sbjNpN-33" style="edgeStyle=orthogonalEdgeStyle;rounded=0;orthogonalLoop=1;jettySize=auto;html=1;exitX=0;exitY=0.3333333333333333;exitDx=0;exitDy=0;exitPerimeter=0;entryX=1;entryY=0.5;entryDx=0;entryDy=0;" parent="1" source="E3HrB5_WT4M9X1sbjNpN-7" target="E3HrB5_WT4M9X1sbjNpN-13" edge="1">
          <mxGeometry relative="1" as="geometry" />
        </mxCell>
        <mxCell id="E3HrB5_WT4M9X1sbjNpN-7" value="Vlasnik/Superadmin" style="shape=umlActor;verticalLabelPosition=bottom;verticalAlign=top;html=1;outlineConnect=0;" parent="1" vertex="1">
          <mxGeometry x="1030" y="120" width="30" height="60" as="geometry" />
        </mxCell>
        <mxCell id="E3HrB5_WT4M9X1sbjNpN-8" value="Pregled artikala" style="ellipse;whiteSpace=wrap;html=1;" parent="1" vertex="1">
          <mxGeometry x="220" y="360" width="120" height="80" as="geometry" />
        </mxCell>
        <mxCell id="E3HrB5_WT4M9X1sbjNpN-9" value="Login" style="ellipse;whiteSpace=wrap;html=1;" parent="1" vertex="1">
          <mxGeometry x="280" y="220" width="120" height="80" as="geometry" />
        </mxCell>
        <mxCell id="E3HrB5_WT4M9X1sbjNpN-10" value="Registracija" style="ellipse;whiteSpace=wrap;html=1;" parent="1" vertex="1">
          <mxGeometry x="280" y="40" width="120" height="80" as="geometry" />
        </mxCell>
        <mxCell id="E3HrB5_WT4M9X1sbjNpN-11" value="Upravljanje artiklima" style="ellipse;whiteSpace=wrap;html=1;" parent="1" vertex="1">
          <mxGeometry x="540" y="350" width="120" height="80" as="geometry" />
        </mxCell>
        <mxCell id="E3HrB5_WT4M9X1sbjNpN-12" value="Upravljanje računima korisnika" style="ellipse;whiteSpace=wrap;html=1;" parent="1" vertex="1">
          <mxGeometry x="540" y="220" width="120" height="80" as="geometry" />
        </mxCell>
        <mxCell id="LOF5MpU2KSSWxNDqAfR6-6" style="edgeStyle=orthogonalEdgeStyle;rounded=0;orthogonalLoop=1;jettySize=auto;html=1;exitX=1;exitY=1;exitDx=0;exitDy=0;" parent="1" source="E3HrB5_WT4M9X1sbjNpN-13" target="E3HrB5_WT4M9X1sbjNpN-6" edge="1">
          <mxGeometry relative="1" as="geometry" />
        </mxCell>
        <mxCell id="E3HrB5_WT4M9X1sbjNpN-13" value="Upravljanje adminima" style="ellipse;whiteSpace=wrap;html=1;" parent="1" vertex="1">
          <mxGeometry x="550" y="100" width="120" height="80" as="geometry" />
        </mxCell>
        <mxCell id="E3HrB5_WT4M9X1sbjNpN-14" value="Slanje tiketa" style="ellipse;whiteSpace=wrap;html=1;" parent="1" vertex="1">
          <mxGeometry x="280" y="770" width="120" height="80" as="geometry" />
        </mxCell>
        <mxCell id="E3HrB5_WT4M9X1sbjNpN-15" value="Sortiranje po modelu" style="ellipse;whiteSpace=wrap;html=1;" parent="1" vertex="1">
          <mxGeometry x="380" y="510" width="100" height="70" as="geometry" />
        </mxCell>
        <mxCell id="E3HrB5_WT4M9X1sbjNpN-16" value="Pretrazivanje" style="ellipse;whiteSpace=wrap;html=1;" parent="1" vertex="1">
          <mxGeometry x="220" y="590" width="120" height="80" as="geometry" />
        </mxCell>
        <mxCell id="E3HrB5_WT4M9X1sbjNpN-17" value="Sortiranje po cijeni" style="ellipse;whiteSpace=wrap;html=1;" parent="1" vertex="1">
          <mxGeometry x="390" y="620" width="100" height="70" as="geometry" />
        </mxCell>
        <mxCell id="E3HrB5_WT4M9X1sbjNpN-39" style="edgeStyle=orthogonalEdgeStyle;rounded=0;orthogonalLoop=1;jettySize=auto;html=1;exitX=0;exitY=0.5;exitDx=0;exitDy=0;" parent="1" source="E3HrB5_WT4M9X1sbjNpN-18" target="E3HrB5_WT4M9X1sbjNpN-5" edge="1">
          <mxGeometry relative="1" as="geometry" />
        </mxCell>
        <mxCell id="E3HrB5_WT4M9X1sbjNpN-18" value="Odgovor" style="ellipse;whiteSpace=wrap;html=1;" parent="1" vertex="1">
          <mxGeometry x="570" y="670" width="120" height="80" as="geometry" />
        </mxCell>
        <mxCell id="E3HrB5_WT4M9X1sbjNpN-19" value="Upravljanje tiketima" style="ellipse;whiteSpace=wrap;html=1;" parent="1" vertex="1">
          <mxGeometry x="760" y="720" width="120" height="80" as="geometry" />
        </mxCell>
        <mxCell id="E3HrB5_WT4M9X1sbjNpN-20" value="" style="endArrow=classic;html=1;rounded=0;exitX=0.5;exitY=1;exitDx=0;exitDy=0;entryX=0.5;entryY=0;entryDx=0;entryDy=0;dashed=1;" parent="1" source="E3HrB5_WT4M9X1sbjNpN-10" target="E3HrB5_WT4M9X1sbjNpN-9" edge="1">
          <mxGeometry relative="1" as="geometry">
            <mxPoint x="480" y="400" as="sourcePoint" />
            <mxPoint x="580" y="400" as="targetPoint" />
          </mxGeometry>
        </mxCell>
        <mxCell id="E3HrB5_WT4M9X1sbjNpN-21" value="&amp;lt;extends&amp;gt;" style="edgeLabel;resizable=0;html=1;;align=center;verticalAlign=middle;" parent="E3HrB5_WT4M9X1sbjNpN-20" connectable="0" vertex="1">
          <mxGeometry relative="1" as="geometry" />
        </mxCell>
        <mxCell id="E3HrB5_WT4M9X1sbjNpN-24" value="" style="endArrow=classic;html=1;rounded=0;exitX=0.5;exitY=0;exitDx=0;exitDy=0;entryX=0.5;entryY=1;entryDx=0;entryDy=0;dashed=1;" parent="1" source="E3HrB5_WT4M9X1sbjNpN-16" target="E3HrB5_WT4M9X1sbjNpN-8" edge="1">
          <mxGeometry relative="1" as="geometry">
            <mxPoint x="400" y="510" as="sourcePoint" />
            <mxPoint x="400" y="610" as="targetPoint" />
          </mxGeometry>
        </mxCell>
        <mxCell id="E3HrB5_WT4M9X1sbjNpN-25" value="&amp;lt;extends&amp;gt;" style="edgeLabel;resizable=0;html=1;;align=center;verticalAlign=middle;" parent="E3HrB5_WT4M9X1sbjNpN-24" connectable="0" vertex="1">
          <mxGeometry relative="1" as="geometry" />
        </mxCell>
        <mxCell id="E3HrB5_WT4M9X1sbjNpN-27" value="" style="endArrow=classic;html=1;rounded=0;exitX=0.01;exitY=0.671;exitDx=0;exitDy=0;exitPerimeter=0;entryX=1;entryY=0;entryDx=0;entryDy=0;" parent="1" source="E3HrB5_WT4M9X1sbjNpN-15" target="E3HrB5_WT4M9X1sbjNpN-16" edge="1">
          <mxGeometry width="50" height="50" relative="1" as="geometry">
            <mxPoint x="510" y="630" as="sourcePoint" />
            <mxPoint x="560" y="580" as="targetPoint" />
          </mxGeometry>
        </mxCell>
        <mxCell id="E3HrB5_WT4M9X1sbjNpN-28" value="" style="endArrow=classic;html=1;rounded=0;exitX=0;exitY=0.5;exitDx=0;exitDy=0;entryX=1;entryY=0;entryDx=0;entryDy=0;" parent="1" source="E3HrB5_WT4M9X1sbjNpN-17" edge="1">
          <mxGeometry width="50" height="50" relative="1" as="geometry">
            <mxPoint x="391" y="567" as="sourcePoint" />
            <mxPoint x="332" y="612" as="targetPoint" />
          </mxGeometry>
        </mxCell>
        <mxCell id="E3HrB5_WT4M9X1sbjNpN-36" style="edgeStyle=orthogonalEdgeStyle;rounded=0;orthogonalLoop=1;jettySize=auto;html=1;exitX=0;exitY=1;exitDx=0;exitDy=0;exitPerimeter=0;entryX=-0.008;entryY=0.425;entryDx=0;entryDy=0;entryPerimeter=0;" parent="1" source="E3HrB5_WT4M9X1sbjNpN-5" target="E3HrB5_WT4M9X1sbjNpN-14" edge="1">
          <mxGeometry relative="1" as="geometry" />
        </mxCell>
        <mxCell id="E3HrB5_WT4M9X1sbjNpN-38" style="edgeStyle=orthogonalEdgeStyle;rounded=0;orthogonalLoop=1;jettySize=auto;html=1;exitX=1;exitY=0.5;exitDx=0;exitDy=0;entryX=1;entryY=1;entryDx=0;entryDy=0;entryPerimeter=0;" parent="1" source="E3HrB5_WT4M9X1sbjNpN-14" target="E3HrB5_WT4M9X1sbjNpN-6" edge="1">
          <mxGeometry relative="1" as="geometry" />
        </mxCell>
        <mxCell id="E3HrB5_WT4M9X1sbjNpN-40" value="" style="endArrow=classic;html=1;rounded=0;exitX=1;exitY=0.5;exitDx=0;exitDy=0;entryX=0;entryY=0.5;entryDx=0;entryDy=0;dashed=1;" parent="1" source="E3HrB5_WT4M9X1sbjNpN-18" target="E3HrB5_WT4M9X1sbjNpN-19" edge="1">
          <mxGeometry relative="1" as="geometry">
            <mxPoint x="350" y="130" as="sourcePoint" />
            <mxPoint x="350" y="230" as="targetPoint" />
          </mxGeometry>
        </mxCell>
        <mxCell id="E3HrB5_WT4M9X1sbjNpN-41" value="&amp;lt;extends&amp;gt;" style="edgeLabel;resizable=0;html=1;;align=center;verticalAlign=middle;" parent="E3HrB5_WT4M9X1sbjNpN-40" connectable="0" vertex="1">
          <mxGeometry relative="1" as="geometry" />
        </mxCell>
        <mxCell id="E3HrB5_WT4M9X1sbjNpN-43" style="edgeStyle=orthogonalEdgeStyle;rounded=0;orthogonalLoop=1;jettySize=auto;html=1;exitX=1;exitY=0;exitDx=0;exitDy=0;entryX=0;entryY=1;entryDx=0;entryDy=0;" parent="1" source="E3HrB5_WT4M9X1sbjNpN-42" target="E3HrB5_WT4M9X1sbjNpN-8" edge="1">
          <mxGeometry relative="1" as="geometry" />
        </mxCell>
        <mxCell id="E3HrB5_WT4M9X1sbjNpN-42" value="Naručivanje" style="ellipse;whiteSpace=wrap;html=1;" parent="1" vertex="1">
          <mxGeometry x="90" y="500" width="120" height="80" as="geometry" />
        </mxCell>
        <mxCell id="LOF5MpU2KSSWxNDqAfR6-3" style="edgeStyle=orthogonalEdgeStyle;rounded=0;orthogonalLoop=1;jettySize=auto;html=1;exitX=1;exitY=0.5;exitDx=0;exitDy=0;entryX=0;entryY=0;entryDx=0;entryDy=0;dashed=1;" parent="1" source="LOF5MpU2KSSWxNDqAfR6-1" target="E3HrB5_WT4M9X1sbjNpN-12" edge="1">
          <mxGeometry relative="1" as="geometry" />
        </mxCell>
        <mxCell id="KkGJQm9YnRgIhtmik4K8-4" value="&lt;span style=&quot;font-size: 12px; background-color: rgb(251, 251, 251);&quot;&gt;&amp;lt;extends&amp;gt;&lt;/span&gt;" style="edgeLabel;html=1;align=center;verticalAlign=middle;resizable=0;points=[];" vertex="1" connectable="0" parent="LOF5MpU2KSSWxNDqAfR6-3">
          <mxGeometry x="-0.109" y="2" relative="1" as="geometry">
            <mxPoint as="offset" />
          </mxGeometry>
        </mxCell>
        <mxCell id="LOF5MpU2KSSWxNDqAfR6-1" value="Unban" style="ellipse;whiteSpace=wrap;html=1;" parent="1" vertex="1">
          <mxGeometry x="420" y="170" width="80" height="50" as="geometry" />
        </mxCell>
        <mxCell id="LOF5MpU2KSSWxNDqAfR6-4" style="edgeStyle=orthogonalEdgeStyle;rounded=0;orthogonalLoop=1;jettySize=auto;html=1;exitX=1;exitY=0;exitDx=0;exitDy=0;entryX=0;entryY=0.5;entryDx=0;entryDy=0;dashed=1;" parent="1" source="LOF5MpU2KSSWxNDqAfR6-2" target="E3HrB5_WT4M9X1sbjNpN-12" edge="1">
          <mxGeometry relative="1" as="geometry" />
        </mxCell>
        <mxCell id="KkGJQm9YnRgIhtmik4K8-3" value="&lt;span style=&quot;font-size: 12px; background-color: rgb(251, 251, 251);&quot;&gt;&amp;lt;extends&amp;gt;&lt;/span&gt;" style="edgeLabel;html=1;align=center;verticalAlign=middle;resizable=0;points=[];" vertex="1" connectable="0" parent="LOF5MpU2KSSWxNDqAfR6-4">
          <mxGeometry x="-0.2854" y="1" relative="1" as="geometry">
            <mxPoint as="offset" />
          </mxGeometry>
        </mxCell>
        <mxCell id="LOF5MpU2KSSWxNDqAfR6-2" value="Ban" style="ellipse;whiteSpace=wrap;html=1;" parent="1" vertex="1">
          <mxGeometry x="400" y="300" width="80" height="60" as="geometry" />
        </mxCell>
        <mxCell id="LOF5MpU2KSSWxNDqAfR6-9" value="Auto Trgovina" style="shape=note;whiteSpace=wrap;html=1;backgroundOutline=1;darkOpacity=0.05;" parent="1" vertex="1">
          <mxGeometry x="80" y="20" width="170" height="100" as="geometry" />
        </mxCell>
        <mxCell id="KkGJQm9YnRgIhtmik4K8-5" value="" style="rounded=0;whiteSpace=wrap;html=1;fillColor=none;" vertex="1" parent="1">
          <mxGeometry x="80" y="20" width="930" height="840" as="geometry" />
        </mxCell>
      </root>
    </mxGraphModel>
  </diagram>
</mxfile>
